<!-- <?xml version="1.0" encoding="UTF-8"?> -->
<!-- Generator: visioncortex VTracer 0.6.3 -->
<svg version="1.1" xmlns="http://www.w3.org/2000/svg" width="1280" height="908">
<path d="M0 0 C119.79 0 239.58 0 363 0 C363.65 42 363.69 84.01 363 126 C243.21 126 123.42 126 0 126 C0 84.42 0 42.84 0 0 Z M184 5 C184 20.84 184 36.68 184 53 C189.8 50.1 195.24 47.35 200.75 44.06 C214.15 36.26 229.32 28.91 245.21 32.5 C250.86 34.68 254.12 38.27 256.81 43.56 C258 48 258 48 258 60 C291 60 324 60 358 60 C358 41.85 358 23.7 358 5 C300.58 5 243.16 5 184 5 Z M170.23 4.92 C169.17 4.92 169.17 4.92 168.1 4.93 C165.73 4.94 163.35 4.96 160.98 4.98 C159.29 4.99 157.59 5 155.9 5.01 C151.29 5.03 146.68 5.07 142.07 5.1 C137.25 5.13 132.43 5.16 127.62 5.19 C118.5 5.25 109.37 5.31 100.25 5.37 C89.87 5.45 79.48 5.51 69.1 5.58 C47.73 5.71 26.37 5.85 5 6 C5 22.83 5 39.66 5 57 C17.49 57.18 17.49 57.18 29.99 57.36 C35.11 57.43 40.23 57.5 45.35 57.57 C65.57 57.87 85.78 58.09 106 58 C105.96 57 105.92 55.99 105.87 54.96 C105.43 42.5 105.43 42.5 110 37 C116.37 31.25 122.34 30.7 130.74 30.78 C139.36 31.36 147.34 34.11 155 38 C155.73 38.36 156.45 38.72 157.2 39.09 C163.99 42.62 170.37 47.2 175.66 52.74 C176.94 54.23 176.94 54.23 179 54 C179 38.16 179 22.32 179 6 C176.07 4.53 173.5 4.9 170.23 4.92 Z M114 41 C112.05 43.72 111.79 45.58 111 49 C111.66 51.97 112.32 54.94 113 58 C142.21 58.5 142.21 58.5 172 59 C169.93 54.86 167.76 52.84 164.19 50.12 C163.61 49.69 163.04 49.25 162.45 48.8 C156.72 44.57 150.65 41.56 144 39 C143.33 38.73 142.66 38.47 141.97 38.2 C137.41 36.74 132.63 36.74 127.88 36.62 C126.85 36.59 126.85 36.59 125.81 36.55 C120.73 36.53 117.87 37.76 114 41 Z M188 58 C188 58.33 188 58.66 188 59 C208.46 59 228.92 59 250 59 C252.12 54.75 252.59 51.63 252 47 C250.22 42.87 247.86 40.3 244 38 C225.64 33.04 202.49 47.7 188 58 Z M5 62 C5 81.47 5 100.94 5 121 C27.54 121.02 50.08 121.04 72.62 121.05 C83.08 121.06 93.55 121.06 104.01 121.08 C113.13 121.09 122.25 121.09 131.36 121.09 C136.19 121.1 141.02 121.1 145.86 121.11 C150.4 121.11 154.94 121.11 159.48 121.11 C161.15 121.11 162.82 121.12 164.49 121.12 C166.77 121.12 169.04 121.12 171.31 121.12 C172.59 121.12 173.86 121.12 175.18 121.12 C177.9 121.32 177.9 121.32 179 120 C179.09 118.34 179.12 116.68 179.11 115.02 C179.11 113.96 179.11 112.9 179.11 111.81 C179.11 110.65 179.1 109.5 179.1 108.31 C179.1 107.13 179.09 105.96 179.09 104.75 C179.09 100.98 179.08 97.21 179.06 93.44 C179.06 90.89 179.05 88.34 179.05 85.79 C179.04 79.53 179.02 73.26 179 67 C168.35 77.46 153.19 93.64 151 109 C148.69 109 146.38 109 144 109 C149.19 94.92 157.81 83.67 167 72 C166.67 71.34 166.34 70.68 166 70 C165.14 70.28 164.29 70.55 163.4 70.84 C162.26 71.2 161.12 71.56 159.94 71.94 C158.81 72.3 157.69 72.66 156.53 73.03 C149.9 74.85 143.45 75.21 136.62 75.25 C135.43 75.28 135.43 75.28 134.2 75.31 C126.45 75.36 119.28 73.92 113.5 68.44 C112.53 67.54 112.53 67.54 111.53 66.62 C110 65 110 65 109 63 C99.92 62.83 90.83 62.66 81.75 62.5 C81.08 62.49 80.4 62.48 79.7 62.46 C54.8 62.03 29.91 61.91 5 62 Z M117 63 C120.39 66.77 123.07 68.72 128.2 69.21 C130.91 69.34 133.6 69.38 136.31 69.38 C137.28 69.38 138.25 69.38 139.25 69.38 C147.94 69.25 155.76 67.64 164 65 C164 64.67 164 64.34 164 64 C148.33 63.33 132.69 62.84 117 63 Z M201 64 C208.38 68.92 219.4 68.19 228.06 68.25 C229.28 68.26 229.28 68.26 230.51 68.28 C234.79 68.26 238.1 67.98 242 66 C242 65.67 242 65.34 242 65 C233.1 63.96 224.27 63.88 215.31 63.94 C213.92 63.94 212.52 63.95 211.13 63.95 C207.75 63.96 204.38 63.98 201 64 Z M247 70 C234.7 76.15 221.52 74.38 208.45 71.98 C207.67 71.84 206.89 71.7 206.09 71.56 C205.4 71.43 204.71 71.3 203.99 71.16 C201.77 70.98 200.12 71.35 198 72 C198.4 72.38 198.8 72.76 199.22 73.15 C206.33 79.94 213.22 86.72 218.94 94.75 C219.36 95.33 219.77 95.92 220.2 96.52 C222.07 99.24 223 100.62 223 104 C220.27 103.95 218.53 103.51 216.55 101.59 C214.93 99.64 213.4 97.65 211.88 95.62 C204.48 86.17 196.47 76.22 186 70 C185.34 70 184.68 70 184 70 C184 86.83 184 103.66 184 121 C241.42 121 298.84 121 358 121 C358 102.85 358 84.7 358 66 C343.36 65.39 328.79 64.81 314.15 64.73 C312.85 64.72 312.85 64.72 311.53 64.71 C306.99 64.68 302.45 64.66 297.91 64.65 C294.19 64.64 290.46 64.61 286.74 64.57 C282.18 64.52 277.62 64.49 273.06 64.49 C271.34 64.48 269.62 64.46 267.9 64.44 C265.51 64.41 263.13 64.41 260.74 64.42 C260.04 64.4 259.34 64.38 258.62 64.37 C253 64.44 250.92 66.32 247 70 Z " fill="#000000" transform="translate(430,378)"/>
</svg>
