<svg xmlns="http://www.w3.org/2000/svg" xmlns:xlink="http://www.w3.org/1999/xlink" width="559"
    zoomAndPan="magnify" viewBox="0 0 419.25 297.75" height="396"
    preserveAspectRatio="xMidYMid meet" version="1.0">
    <defs>
        <clipPath id="ad6080e435">
            <path
                d="M 0 0.140625 L 418.5 0.140625 L 418.5 297.359375 L 0 297.359375 Z M 0 0.140625 "
                clip-rule="nonzero" />
        </clipPath>
        <clipPath id="0debf42f27">
            <path
                d="M 140.710938 124 L 259.488281 124 L 259.488281 164.957031 L 140.710938 164.957031 Z M 140.710938 124 "
                clip-rule="nonzero" />
        </clipPath>
        <clipPath id="23e74ae572">
            <path
                d="M 175 133.871094 L 226 133.871094 L 226 159.324219 L 175 159.324219 Z M 175 133.871094 "
                clip-rule="nonzero" />
        </clipPath>
    </defs>
    <g clip-path="url(#ad6080e435)">
        <path fill="#ffffff"
            d="M 0 0.140625 L 418.5 0.140625 L 418.5 297.359375 L 0 297.359375 Z M 0 0.140625 "
            fill-opacity="1" fill-rule="nonzero" />
        <path fill="#ffffff"
            d="M 0 0.140625 L 418.5 0.140625 L 418.5 297.359375 L 0 297.359375 Z M 0 0.140625 "
            fill-opacity="1" fill-rule="nonzero" />
    </g>
    <g clip-path="url(#0debf42f27)">
        <path stroke-linecap="butt"
            transform="matrix(0.748661, 0, 0, 0.748661, 140.709824, 124.001436)" fill="none"
            stroke-linejoin="miter"
            d="M 0.00148694 -0.00191778 L 158.654604 -0.00191778 L 158.654604 54.705154 L 0.00148694 54.705154 Z M 0.00148694 -0.00191778 "
            stroke="#000000" stroke-width="4" stroke-opacity="1" stroke-miterlimit="4" />
    </g>
    <path stroke-linecap="butt"
        transform="matrix(0.748622, 0.0076134, -0.0076134, 0.748622, 141.7179, 142.532965)"
        fill="none" stroke-linejoin="miter" d="M 0.000864668 0.999541 L 157.336843 1.001354 "
        stroke="#000000" stroke-width="2" stroke-opacity="1" stroke-miterlimit="4" />
    <path stroke-linecap="butt"
        transform="matrix(0, -0.748661, 0.748661, 0, 199.224662, 163.606535)" fill="none"
        stroke-linejoin="miter" d="M 0.00142368 0.99911 L 52.303155 0.99911 " stroke="#000000"
        stroke-width="2" stroke-opacity="1" stroke-miterlimit="4" />
    <g clip-path="url(#23e74ae572)">
        <path fill="#000000"
            d="M 218.175781 135.949219 C 220.753906 135.949219 222.40625 137.058594 223.136719 139.285156 L 223.128906 139.285156 C 223.746094 142.605469 222.152344 144.832031 218.351562 145.964844 L 218.320312 145.964844 C 217.34375 146.132812 216.277344 146.214844 215.125 146.214844 C 214.0625 146.214844 212.925781 146.144531 211.714844 146.003906 L 211.667969 146 C 209.191406 145.832031 205.6875 145.007812 201.15625 143.527344 L 201.125 143.527344 C 205.1875 140.957031 207.898438 139.351562 209.253906 138.714844 L 209.265625 138.710938 C 211.984375 137.390625 214.207031 136.550781 215.929688 136.183594 C 216.742188 136.027344 217.492188 135.949219 218.175781 135.949219 Z M 182.597656 135.667969 C 185.640625 135.667969 189.046875 136.8125 192.816406 139.101562 C 194.597656 140.316406 196.261719 141.734375 197.804688 143.355469 L 197.773438 143.355469 C 196.390625 144.101562 195.238281 144.648438 194.316406 144.996094 L 194.292969 145.007812 C 191.601562 146.097656 188.445312 146.644531 184.828125 146.644531 C 184.386719 146.644531 183.9375 146.636719 183.484375 146.617188 L 183.457031 146.617188 C 180.4375 146.367188 178.375 144.84375 177.277344 142.046875 L 177.269531 142.046875 C 176.558594 139.128906 177.382812 137.128906 179.738281 136.042969 L 179.707031 136.042969 C 180.632812 135.792969 181.59375 135.667969 182.597656 135.667969 Z M 182.597656 133.742188 C 181.429688 133.742188 180.300781 133.886719 179.210938 134.179688 L 179.074219 134.230469 C 175.65625 135.738281 174.429688 138.496094 175.402344 142.5 L 175.4375 142.617188 C 176.816406 146.242188 179.433594 148.21875 183.300781 148.539062 L 183.34375 148.539062 C 183.847656 148.558594 184.339844 148.570312 184.828125 148.570312 C 188.683594 148.570312 192.070312 147.980469 194.992188 146.800781 C 195.269531 146.695312 195.5625 146.574219 195.875 146.441406 L 195.90625 146.441406 C 191.78125 151.675781 189.367188 155.257812 188.664062 157.1875 C 186.746094 161.511719 186.644531 164.566406 188.347656 166.351562 C 188.539062 166.546875 188.789062 166.648438 189.042969 166.648438 C 189.28125 166.648438 189.519531 166.558594 189.707031 166.378906 C 190.089844 166.011719 190.101562 165.402344 189.734375 165.015625 C 188.617188 163.847656 188.851562 161.480469 190.441406 157.910156 L 190.464844 157.847656 C 191.203125 155.832031 194.175781 151.601562 199.382812 145.164062 L 199.410156 145.164062 C 199.511719 145.289062 199.613281 145.410156 199.714844 145.535156 C 199.785156 145.625 199.875 145.703125 199.972656 145.761719 C 201.789062 146.828125 203.726562 148.328125 205.777344 150.253906 C 207.613281 151.984375 209.726562 154.488281 212.121094 157.769531 C 212.308594 158.027344 212.601562 158.164062 212.894531 158.164062 C 213.089844 158.164062 213.289062 158.105469 213.460938 157.980469 C 213.890625 157.664062 213.980469 157.0625 213.667969 156.632812 C 211.203125 153.253906 209.011719 150.660156 207.089844 148.847656 L 207.085938 148.847656 C 206.1875 148.003906 205.308594 147.238281 204.449219 146.546875 L 204.476562 146.546875 C 207.339844 147.339844 209.691406 147.796875 211.539062 147.921875 L 211.527344 147.921875 C 212.796875 148.066406 213.996094 148.140625 215.125 148.140625 C 216.4375 148.140625 217.652344 148.042969 218.773438 147.84375 L 218.886719 147.816406 C 223.859375 146.339844 225.890625 143.332031 224.988281 138.796875 L 224.960938 138.683594 C 223.9375 135.566406 221.722656 134.007812 218.3125 134.007812 C 217.46875 134.007812 216.554688 134.101562 215.566406 134.292969 L 215.550781 134.292969 C 213.671875 134.691406 211.300781 135.585938 208.429688 136.976562 C 206.929688 137.683594 203.9375 139.457031 199.460938 142.304688 C 197.734375 140.457031 195.867188 138.847656 193.851562 137.480469 L 193.8125 137.457031 C 189.734375 134.980469 185.996094 133.742188 182.597656 133.742188 Z M 182.597656 133.742188 "
            fill-opacity="1" fill-rule="nonzero" />
    </g>
</svg>